<svg xmlns="http://www.w3.org/2000/svg" viewBox="0 0 1000 1000"><rect width="1000" height="1000" fill="#d51116" rx="90" ry="90"/><path fill="#faeaeb" d="M764 628V513h101v140l2 2 16 20v325h15V681h63v126h39v-15h-24V681h24v-15h-24V513h24v-25h-24V380l-37-30 61-70v-38L867 395H687v75h-39a250 250 0 0 0-248-220 249 249 0 0 0-165 62l-58-48 69-83 138-23 246 23v12l-103 74a266 266 0 0 1 73 59l207-151V0h-52v103l-85 61V0h-40v31H250V0h-60v70L84 49V0a90 90 0 0 0-60 29v187l171 141a250 250 0 0 0-27 236L60 767v1l-22-1V654l89-83h1V357H36L0 265v44l22 57v80H0v16h22v321l38 1v211a89 89 0 0 0 30 5h30V798l23 10h27v75l-25 116 4 1h4l22-103 21 60v43h8v-43l32-43v86h45V756l9-15a266 266 0 0 1-39-22l-15 25v48h-89l-25-11 80-128a250 250 0 0 0 198 97c128 0 233-96 248-220h56v119l-44 79-62-50a267 267 0 0 1-34 31l64 52v14H506v80c0 46 83 92 122 111v34h45V864l74 7v129h60V676zm118-212l47-54 32 26v100h-79zm-2 97h81v153h-66l-15-19zM630 166l-211-20 72-24h139zm0-120v61h-54l-51-61zm-124 0l50 61h-65l-92-11 77-50zm-57 0l-73 47-126-14V46zM250 94l207 24-77 25-130 22V94zM84 187V64l106 21v70l-59 71zM38 373h74v73H38zm0 89h74v101l-74 69zm140 346h58v92l-35 48-23-66zm222-108a200 200 0 1 1 0-400 200 200 0 0 1 0 400zm169 223c-36-25-55-49-55-68v-72h55zm59 34a545 545 0 0 1-51-29V783h51zm84-537h150v68h-98v-18h-52zm35 435l-74-7V739h-1l43-77 32 36z"/><path fill="#faeaeb" d="M445 438l94-68a188 188 0 0 0-84-50l-100 72v161l-62 99a187 187 0 0 0 40 22l47-76v88a190 190 0 0 0 24 1h16v-94l84 67a189 189 0 0 0 35-29l-94-76zm-25 326l-20 1-20-1v52l-47 19v165h8v-54h89l-10 53 10 2 17-82 20 31v50h40v-62l-87-132zm18 142l-6 32h-91v-97l42-18z"/><path fill="#fff" stroke="#d51116" stroke-width="12" d="M821 288a90 90 0 0 0-90 90c0 49 90 181 90 181s90-132 90-181a90 90 0 0 0-90-90zm0 113a24 24 0 1 1 23-23 24 24 0 0 1-23 23z"/></svg>