<svg xmlns="http://www.w3.org/2000/svg" viewBox="0 0 1000 1000"><rect width="1000" height="1000" rx="90" fill="#d51219"/><g fill="#faeaec"><path d="M739 395v75h-25c26-71 11-153-46-210a199 199 0 0 0-268-12 199 199 0 0 0-268 12l-27-41 139-45 182-16 204 23v12l-17 12a214 214 0 0 1 66 45l10 11 118-86V0h-52v103l-85 61V0h-40v31H250V0h-60v72L88 60l59-60H84L30 56v146l66 107a199 199 0 0 0 36 233l42 42L60 767v1H38V654l55-50v-79l-34-79H0v16h22v306H0v16h60v211a88 88 0 0 0 11 3l4 1h3l4 1h38V798l23 10h27v75l-25 117h8l22-102 21 59v43h8v-43l32-43v86h45V756l17-27-33-33-29 48v48h-89l-25-11 96-154 161 162a30 30 0 0 0 42 0l1-1 246-246 11-12h39v116l-57 84-89-72-32 32 87 71v14H506v80c0 45 82 91 122 111v34h45V864l74 7v129h60V876l76 6v118h15V680h63v127h39v-15h-24V680h24v-15h-24V513h24v-25h-24V380l-38-30 62-71v-38l-11 13-53-46 31-33h33v-14h-39zM630 165l-196-21v-22h196zm0-120v61h-54l-51-60zm-178 0h54l50 61H436zm-16 1l-15 60-171-26V46zM250 151V95l169 25v23l-169 16zM84 163V74l106 13v42zM38 462h10l29 66v69l-39 35zm140 346h58v93l-35 47-23-66zm449-307L400 728 174 502c-27-27-42-63-42-100a141 141 0 0 1 240-101l6 7a30 30 0 0 0 43 0l7-7a141 141 0 0 1 199 0c55 55 55 145 0 200zm-58 422c-36-25-55-48-55-68v-72h55zm59 34c-13-6-30-15-46-26l-5-3V783h51zm119-102l-74-7V742l53-80 21 33zm102-556l60 47-43 49H758zm-89 171v-50h102v68h-85zm123 398l-76-6V679l-29-48V513h87v140l2 2 16 20zm78-203h-67l-14-18V513h81zm-1-277v100h-78v-73l46-53zm20-124l-62 71-59-46 67-71z"/><path d="M618 313l-2-1a125 125 0 0 0-89-37h-11L355 392v160l-42 67 33 33 34-55v89l17 18a4 4 0 0 0 6 0l17-18v-93l52 42 32-32-59-48V438zM401 815h-6l-2-1h-3a38 38 0 0 1-10-5v7l-47 19v165h8v-54h89l-11 55h11l17-82 20 31v50h40v-62l-85-130a38 38 0 0 1-21 7zm31 123h-91v-97l42-18 55 83z"/></g><path fill="#fff" stroke="#d51219" stroke-width="14" d="M258 109a114 114 0 0 0-114 114c0 63 114 230 114 230s114-167 114-230a114 114 0 0 0-114-114zm0 144a30 30 0 1 1 30-30 30 30 0 0 1-30 30z"/><circle fill="#d51219" cx="258" cy="223" r="30"/></svg>